<svg width="28" height="26" viewBox="0 0 28 26" fill="none" xmlns="http://www.w3.org/2000/svg">
<path fill-rule="evenodd" clip-rule="evenodd" d="M7.45472 6.38405H9.64643V5.32005H18.4133V6.38405H20.605V5.32005H22.7967V8.51205H5.263V5.32005H7.45472V6.38405ZM5.263 10.6401V21.28H22.7967V10.6401H5.263ZM9.64643 3.19205H18.4133V2.12805H20.605V3.19205H22.7967C24.0072 3.19205 24.9884 4.14479 24.9884 5.32005V21.2801C24.9884 22.4553 24.0072 23.4081 22.7967 23.4081H5.263C4.05255 23.4081 3.07129 22.4553 3.07129 21.2801V5.32005C3.07129 4.14479 4.05255 3.19205 5.263 3.19205H7.45472V2.12805H9.64643V3.19205Z" fill="#7AA0A7"/>
</svg>
