<svg width="30" height="30" viewBox="0 0 30 30" fill="none" xmlns="http://www.w3.org/2000/svg">
<path d="M12.7634 20.4901L7.36364 15.0904L9.16354 13.2905L12.7634 16.8903L19.963 9.6907L21.7629 11.4906L12.7634 20.4901Z" fill="#1C82AA"/>
<path fill-rule="evenodd" clip-rule="evenodd" d="M1 15C1 7.26801 7.26801 1 15 1C22.732 1 29 7.26801 29 15C29 22.732 22.732 29 15 29C7.26801 29 1 22.732 1 15ZM15 26.4545C8.67383 26.4545 3.54545 21.3262 3.54545 15C3.54545 8.67383 8.67383 3.54545 15 3.54545C21.3262 3.54545 26.4545 8.67383 26.4545 15C26.4545 21.3262 21.3262 26.4545 15 26.4545Z" fill="#1C82AA"/>
</svg>
