<svg width="44" height="44" viewBox="0 0 44 44" fill="none" xmlns="http://www.w3.org/2000/svg">
<g clip-path="url(#clip0_163_881)">
<path d="M44 22C44 9.84984 34.1502 0 22 0C9.84984 0 0 9.84984 0 22C0 32.3171 7.10336 40.9746 16.6857 43.3523V28.7232H12.1493V22H16.6857V19.103C16.6857 11.6151 20.0746 8.1444 27.4261 8.1444C28.82 8.1444 31.225 8.41808 32.2089 8.69088V14.7849C31.6897 14.7303 30.7877 14.703 29.6674 14.703C26.0603 14.703 24.6664 16.0697 24.6664 19.6222V22H31.8525L30.6178 28.7232H24.6664V43.839C35.5599 42.5234 44.0009 33.2482 44.0009 22H44Z" fill="#0866FF"/>
<path d="M30.617 28.7232L31.8516 22H24.6655V19.6222C24.6655 16.0697 26.0594 14.703 29.6666 14.703C30.7868 14.703 31.6888 14.7303 32.208 14.7849V8.69089C31.2242 8.41721 28.8191 8.14441 27.4252 8.14441C20.0737 8.14441 16.6848 11.6151 16.6848 19.103V22H12.1484V28.7232H16.6848V43.3523C18.3867 43.7747 20.167 44 21.9991 44C22.9011 44 23.7908 43.9446 24.6646 43.839V28.7232H30.6161H30.617Z" fill="white"/>
</g>
<defs>
<clipPath id="clip0_163_881">
<rect width="44" height="44" fill="white"/>
</clipPath>
</defs>
</svg>
