<svg width="30" height="30" viewBox="0 0 30 30" fill="none" xmlns="http://www.w3.org/2000/svg">
<path d="M14.5625 20.5781V20.1259L14.1125 20.0806C12.4036 19.9089 10.7813 19.245 9.44231 18.1695C8.10329 17.094 7.1051 15.6531 6.5688 14.0215C6.03249 12.3899 5.98111 10.6378 6.4209 8.97755C6.86068 7.31734 7.77273 5.82041 9.04643 4.66829C10.3201 3.51617 11.9008 2.75837 13.5966 2.48679C15.2925 2.21521 17.0307 2.44152 18.6005 3.13827C20.1703 3.83503 21.5042 4.97229 22.4404 6.41214C23.3765 7.85182 23.8749 9.53214 23.875 11.2494C23.8723 13.4489 23.0541 15.5694 21.5786 17.2006C20.1031 18.8319 18.0751 19.858 15.8869 20.0807L15.4375 20.1264V20.5781V23.4375V23.9375H15.9375H19.6875C19.8035 23.9375 19.9148 23.9836 19.9969 24.0656C20.0789 24.1477 20.125 24.259 20.125 24.375C20.125 24.491 20.0789 24.6023 19.9969 24.6844C19.9148 24.7664 19.8035 24.8125 19.6875 24.8125H15.9375H15.4375V25.3125V28.125C15.4375 28.241 15.3914 28.3523 15.3094 28.4344C15.2273 28.5164 15.116 28.5625 15 28.5625C14.884 28.5625 14.7727 28.5164 14.6906 28.4344C14.6086 28.3523 14.5625 28.241 14.5625 28.125V25.3125V24.8125H14.0625H10.3125C10.1965 24.8125 10.0852 24.7664 10.0031 24.6844C9.92109 24.6023 9.875 24.491 9.875 24.375C9.875 24.259 9.92109 24.1477 10.0031 24.0657C10.0852 23.9836 10.1965 23.9375 10.3125 23.9375H14.0625H14.5625V23.4375V20.5781ZM7 11.25L7 11.2506C7.00232 13.3714 7.84586 15.4048 9.34554 16.9045C10.8452 18.4042 12.8786 19.2477 14.9995 19.25H15C16.5823 19.25 18.129 18.7808 19.4446 17.9018C20.7602 17.0227 21.7855 15.7733 22.391 14.3115C22.9965 12.8497 23.155 11.2411 22.8463 9.68929C22.5376 8.13744 21.7757 6.71198 20.6569 5.59316C19.538 4.47434 18.1126 3.71241 16.5607 3.40373C15.0089 3.09505 13.4003 3.25347 11.9385 3.85897C10.4767 4.46447 9.22729 5.48985 8.34824 6.80545C7.46919 8.12104 7 9.66776 7 11.25Z" fill="white" stroke="#4A6670"/>
</svg>
