<svg width="44" height="44" viewBox="0 0 44 44" fill="none" xmlns="http://www.w3.org/2000/svg">
<g clip-path="url(#clip0_163_872)">
<path d="M21.9997 17.9999V26.52H33.8396C33.3197 29.26 31.7595 31.58 29.4196 33.14L36.5595 38.6801C40.7195 34.8402 43.1195 29.2001 43.1195 22.5002C43.1195 20.9402 42.9796 19.44 42.7195 18.0002L21.9997 17.9999Z" fill="#4285F4"/>
<path d="M9.67024 26.1874L8.05991 27.4201L2.35982 31.86C5.97981 39.0399 13.3993 44 21.9992 44C27.939 44 32.919 42.04 36.5591 38.6801L29.4191 33.14C27.4591 34.46 24.9591 35.2601 21.9992 35.2601C16.2792 35.2601 11.4194 31.4001 9.67924 26.2001L9.67024 26.1874Z" fill="#34A853"/>
<path d="M2.35983 12.14C0.85991 15.0999 0 18.4399 0 21.9999C0 25.5598 0.85991 28.8999 2.35983 31.8598C2.35983 31.8796 9.67995 26.1797 9.67995 26.1797C9.23996 24.8598 8.97988 23.4598 8.97988 21.9997C8.97988 20.5395 9.23996 19.1395 9.67995 17.8196L2.35983 12.14Z" fill="#FBBC05"/>
<path d="M21.9996 8.75999C25.2397 8.75999 28.1196 9.87996 30.4196 12.04L36.7196 5.74007C32.8996 2.18014 27.9397 0 21.9996 0C13.3997 0 5.97981 4.93999 2.35982 12.14L9.67972 17.82C11.4196 12.62 16.2797 8.75999 21.9996 8.75999Z" fill="#EA4335"/>
</g>
<defs>
<clipPath id="clip0_163_872">
<rect width="44" height="44" fill="white"/>
</clipPath>
</defs>
</svg>
