<svg width="297" height="50" viewBox="0 0 297 50" fill="none" xmlns="http://www.w3.org/2000/svg">
<rect x="0.5" y="0.5" width="296" height="49" rx="23.5" fill="white" stroke="#7AA0A7"/>
<path d="M52.768 31.112C52.032 31.112 51.3707 30.984 50.784 30.728C50.208 30.4613 49.7547 30.0987 49.424 29.64C49.0933 29.1707 48.9227 28.632 48.912 28.024H50.464C50.5173 28.5467 50.7307 28.9893 51.104 29.352C51.488 29.704 52.0427 29.88 52.768 29.88C53.4613 29.88 54.0053 29.7093 54.4 29.368C54.8053 29.016 55.008 28.568 55.008 28.024C55.008 27.5973 54.8907 27.2507 54.656 26.984C54.4213 26.7173 54.128 26.5147 53.776 26.376C53.424 26.2373 52.9493 26.088 52.352 25.928C51.616 25.736 51.024 25.544 50.576 25.352C50.1387 25.16 49.76 24.8613 49.44 24.456C49.1307 24.04 48.976 23.4853 48.976 22.792C48.976 22.184 49.1307 21.6453 49.44 21.176C49.7493 20.7067 50.1813 20.344 50.736 20.088C51.3013 19.832 51.9467 19.704 52.672 19.704C53.7173 19.704 54.5707 19.9653 55.232 20.488C55.904 21.0107 56.2827 21.704 56.368 22.568H54.768C54.7147 22.1413 54.4907 21.768 54.096 21.448C53.7013 21.1173 53.1787 20.952 52.528 20.952C51.92 20.952 51.424 21.112 51.04 21.432C50.656 21.7413 50.464 22.1787 50.464 22.744C50.464 23.1493 50.576 23.48 50.8 23.736C51.0347 23.992 51.3173 24.1893 51.648 24.328C51.9893 24.456 52.464 24.6053 53.072 24.776C53.808 24.9787 54.4 25.1813 54.848 25.384C55.296 25.576 55.68 25.88 56 26.296C56.32 26.7013 56.48 27.256 56.48 27.96C56.48 28.504 56.336 29.016 56.048 29.496C55.76 29.976 55.3333 30.3653 54.768 30.664C54.2027 30.9627 53.536 31.112 52.768 31.112ZM66.6226 26.28C66.6226 26.5573 66.6066 26.8507 66.5746 27.16H59.5666C59.62 28.024 59.9133 28.7013 60.4466 29.192C60.9906 29.672 61.6466 29.912 62.4146 29.912C63.044 29.912 63.5666 29.768 63.9826 29.48C64.4093 29.1813 64.708 28.7867 64.8786 28.296H66.4466C66.212 29.1387 65.7426 29.8267 65.0386 30.36C64.3346 30.8827 63.46 31.144 62.4146 31.144C61.5826 31.144 60.836 30.9573 60.1746 30.584C59.524 30.2107 59.012 29.6827 58.6386 29C58.2653 28.3067 58.0786 27.5067 58.0786 26.6C58.0786 25.6933 58.26 24.8987 58.6226 24.216C58.9853 23.5333 59.492 23.0107 60.1426 22.648C60.804 22.2747 61.5613 22.088 62.4146 22.088C63.2466 22.088 63.9826 22.2693 64.6226 22.632C65.2626 22.9947 65.7533 23.496 66.0946 24.136C66.4466 24.7653 66.6226 25.48 66.6226 26.28ZM65.1186 25.976C65.1186 25.4213 64.996 24.9467 64.7506 24.552C64.5053 24.1467 64.1693 23.8427 63.7426 23.64C63.3266 23.4267 62.8626 23.32 62.3506 23.32C61.6146 23.32 60.9853 23.5547 60.4626 24.024C59.9506 24.4933 59.6573 25.144 59.5826 25.976H65.1186ZM68.0005 26.584C68.0005 25.688 68.1818 24.904 68.5445 24.232C68.9072 23.5493 69.4032 23.0213 70.0325 22.648C70.6725 22.2747 71.3818 22.088 72.1605 22.088C72.9285 22.088 73.5952 22.2533 74.1605 22.584C74.7258 22.9147 75.1472 23.3307 75.4245 23.832V22.232H76.8965V31H75.4245V29.368C75.1365 29.88 74.7045 30.3067 74.1285 30.648C73.5632 30.9787 72.9018 31.144 72.1445 31.144C71.3658 31.144 70.6618 30.952 70.0325 30.568C69.4032 30.184 68.9072 29.6453 68.5445 28.952C68.1818 28.2587 68.0005 27.4693 68.0005 26.584ZM75.4245 26.6C75.4245 25.9387 75.2912 25.3627 75.0245 24.872C74.7578 24.3813 74.3952 24.008 73.9365 23.752C73.4885 23.4853 72.9925 23.352 72.4485 23.352C71.9045 23.352 71.4085 23.48 70.9605 23.736C70.5125 23.992 70.1552 24.3653 69.8885 24.856C69.6218 25.3467 69.4885 25.9227 69.4885 26.584C69.4885 27.256 69.6218 27.8427 69.8885 28.344C70.1552 28.8347 70.5125 29.2133 70.9605 29.48C71.4085 29.736 71.9045 29.864 72.4485 29.864C72.9925 29.864 73.4885 29.736 73.9365 29.48C74.3952 29.2133 74.7578 28.8347 75.0245 28.344C75.2912 27.8427 75.4245 27.2613 75.4245 26.6ZM80.813 23.656C81.069 23.1547 81.4317 22.7653 81.901 22.488C82.381 22.2107 82.9623 22.072 83.645 22.072V23.576H83.261C81.629 23.576 80.813 24.4613 80.813 26.232V31H79.357V22.232H80.813V23.656ZM84.7818 26.6C84.7818 25.6933 84.9631 24.904 85.3258 24.232C85.6884 23.5493 86.1898 23.0213 86.8298 22.648C87.4804 22.2747 88.2218 22.088 89.0538 22.088C90.1311 22.088 91.0164 22.3493 91.7098 22.872C92.4138 23.3947 92.8778 24.12 93.1018 25.048H91.5338C91.3844 24.5147 91.0911 24.0933 90.6538 23.784C90.2271 23.4747 89.6938 23.32 89.0538 23.32C88.2218 23.32 87.5498 23.608 87.0378 24.184C86.5258 24.7493 86.2698 25.5547 86.2698 26.6C86.2698 27.656 86.5258 28.472 87.0378 29.048C87.5498 29.624 88.2218 29.912 89.0538 29.912C89.6938 29.912 90.2271 29.7627 90.6538 29.464C91.0804 29.1653 91.3738 28.7387 91.5338 28.184H93.1018C92.8671 29.08 92.3978 29.8 91.6938 30.344C90.9898 30.8773 90.1098 31.144 89.0538 31.144C88.2218 31.144 87.4804 30.9573 86.8298 30.584C86.1898 30.2107 85.6884 29.6827 85.3258 29C84.9631 28.3173 84.7818 27.5173 84.7818 26.6ZM99.3965 22.072C100.058 22.072 100.655 22.216 101.189 22.504C101.722 22.7813 102.138 23.2027 102.437 23.768C102.746 24.3333 102.901 25.0213 102.901 25.832V31H101.461V26.04C101.461 25.1653 101.242 24.4987 100.805 24.04C100.367 23.5707 99.7698 23.336 99.0125 23.336C98.2445 23.336 97.6312 23.576 97.1725 24.056C96.7245 24.536 96.5005 25.2347 96.5005 26.152V31H95.0445V19.16H96.5005V23.48C96.7885 23.032 97.1832 22.6853 97.6845 22.44C98.1965 22.1947 98.7672 22.072 99.3965 22.072ZM113.113 23.432H111.273V31H109.817V23.432H108.681V22.232H109.817V21.608C109.817 20.6267 110.067 19.912 110.569 19.464C111.081 19.0053 111.897 18.776 113.016 18.776V19.992C112.377 19.992 111.923 20.12 111.657 20.376C111.401 20.6213 111.273 21.032 111.273 21.608V22.232H113.113V23.432ZM118.634 31.144C117.813 31.144 117.066 30.9573 116.394 30.584C115.733 30.2107 115.21 29.6827 114.826 29C114.453 28.3067 114.266 27.5067 114.266 26.6C114.266 25.704 114.458 24.9147 114.842 24.232C115.237 23.5387 115.77 23.0107 116.442 22.648C117.114 22.2747 117.866 22.088 118.698 22.088C119.53 22.088 120.282 22.2747 120.954 22.648C121.626 23.0107 122.154 23.5333 122.538 24.216C122.933 24.8987 123.13 25.6933 123.13 26.6C123.13 27.5067 122.927 28.3067 122.522 29C122.127 29.6827 121.589 30.2107 120.906 30.584C120.223 30.9573 119.466 31.144 118.634 31.144ZM118.634 29.864C119.157 29.864 119.647 29.7413 120.106 29.496C120.565 29.2507 120.933 28.8827 121.21 28.392C121.498 27.9013 121.642 27.304 121.642 26.6C121.642 25.896 121.503 25.2987 121.226 24.808C120.949 24.3173 120.586 23.9547 120.138 23.72C119.69 23.4747 119.205 23.352 118.682 23.352C118.149 23.352 117.658 23.4747 117.21 23.72C116.773 23.9547 116.421 24.3173 116.154 24.808C115.887 25.2987 115.754 25.896 115.754 26.6C115.754 27.3147 115.882 27.9173 116.138 28.408C116.405 28.8987 116.757 29.2667 117.194 29.512C117.631 29.7467 118.111 29.864 118.634 29.864ZM126.501 23.656C126.757 23.1547 127.119 22.7653 127.589 22.488C128.069 22.2107 128.65 22.072 129.333 22.072V23.576H128.949C127.317 23.576 126.501 24.4613 126.501 26.232V31H125.045V22.232H126.501V23.656ZM136.735 19.16V31H135.279V19.16H136.735ZM143.04 31.144C142.219 31.144 141.472 30.9573 140.8 30.584C140.139 30.2107 139.616 29.6827 139.232 29C138.859 28.3067 138.672 27.5067 138.672 26.6C138.672 25.704 138.864 24.9147 139.248 24.232C139.643 23.5387 140.176 23.0107 140.848 22.648C141.52 22.2747 142.272 22.088 143.104 22.088C143.936 22.088 144.688 22.2747 145.36 22.648C146.032 23.0107 146.56 23.5333 146.944 24.216C147.339 24.8987 147.536 25.6933 147.536 26.6C147.536 27.5067 147.334 28.3067 146.928 29C146.534 29.6827 145.995 30.2107 145.312 30.584C144.63 30.9573 143.872 31.144 143.04 31.144ZM143.04 29.864C143.563 29.864 144.054 29.7413 144.512 29.496C144.971 29.2507 145.339 28.8827 145.616 28.392C145.904 27.9013 146.048 27.304 146.048 26.6C146.048 25.896 145.91 25.2987 145.632 24.808C145.355 24.3173 144.992 23.9547 144.544 23.72C144.096 23.4747 143.611 23.352 143.088 23.352C142.555 23.352 142.064 23.4747 141.616 23.72C141.179 23.9547 140.827 24.3173 140.56 24.808C140.294 25.2987 140.16 25.896 140.16 26.6C140.16 27.3147 140.288 27.9173 140.544 28.408C140.811 28.8987 141.163 29.2667 141.6 29.512C142.038 29.7467 142.518 29.864 143.04 29.864ZM148.907 26.6C148.907 25.6933 149.088 24.904 149.451 24.232C149.813 23.5493 150.315 23.0213 150.955 22.648C151.605 22.2747 152.347 22.088 153.179 22.088C154.256 22.088 155.141 22.3493 155.835 22.872C156.539 23.3947 157.003 24.12 157.227 25.048H155.659C155.509 24.5147 155.216 24.0933 154.779 23.784C154.352 23.4747 153.819 23.32 153.179 23.32C152.347 23.32 151.675 23.608 151.163 24.184C150.651 24.7493 150.395 25.5547 150.395 26.6C150.395 27.656 150.651 28.472 151.163 29.048C151.675 29.624 152.347 29.912 153.179 29.912C153.819 29.912 154.352 29.7627 154.779 29.464C155.205 29.1653 155.499 28.7387 155.659 28.184H157.227C156.992 29.08 156.523 29.8 155.819 30.344C155.115 30.8773 154.235 31.144 153.179 31.144C152.347 31.144 151.605 30.9573 150.955 30.584C150.315 30.2107 149.813 29.6827 149.451 29C149.088 28.3173 148.907 27.5173 148.907 26.6ZM158.626 26.584C158.626 25.688 158.807 24.904 159.17 24.232C159.532 23.5493 160.028 23.0213 160.658 22.648C161.298 22.2747 162.007 22.088 162.786 22.088C163.554 22.088 164.22 22.2533 164.786 22.584C165.351 22.9147 165.772 23.3307 166.05 23.832V22.232H167.522V31H166.05V29.368C165.762 29.88 165.33 30.3067 164.754 30.648C164.188 30.9787 163.527 31.144 162.77 31.144C161.991 31.144 161.287 30.952 160.658 30.568C160.028 30.184 159.532 29.6453 159.17 28.952C158.807 28.2587 158.626 27.4693 158.626 26.584ZM166.05 26.6C166.05 25.9387 165.916 25.3627 165.65 24.872C165.383 24.3813 165.02 24.008 164.562 23.752C164.114 23.4853 163.618 23.352 163.074 23.352C162.53 23.352 162.034 23.48 161.586 23.736C161.138 23.992 160.78 24.3653 160.514 24.856C160.247 25.3467 160.114 25.9227 160.114 26.584C160.114 27.256 160.247 27.8427 160.514 28.344C160.78 28.8347 161.138 29.2133 161.586 29.48C162.034 29.736 162.53 29.864 163.074 29.864C163.618 29.864 164.114 29.736 164.562 29.48C165.02 29.2133 165.383 28.8347 165.65 28.344C165.916 27.8427 166.05 27.2613 166.05 26.6ZM171.758 23.432V28.6C171.758 29.0267 171.849 29.3307 172.03 29.512C172.211 29.6827 172.526 29.768 172.974 29.768H174.046V31H172.734C171.923 31 171.315 30.8133 170.91 30.44C170.505 30.0667 170.302 29.4533 170.302 28.6V23.432H169.166V22.232H170.302V20.024H171.758V22.232H174.046V23.432H171.758ZM176.562 20.808C176.285 20.808 176.05 20.712 175.858 20.52C175.666 20.328 175.57 20.0933 175.57 19.816C175.57 19.5387 175.666 19.304 175.858 19.112C176.05 18.92 176.285 18.824 176.562 18.824C176.829 18.824 177.053 18.92 177.234 19.112C177.426 19.304 177.522 19.5387 177.522 19.816C177.522 20.0933 177.426 20.328 177.234 20.52C177.053 20.712 176.829 20.808 176.562 20.808ZM177.266 22.232V31H175.81V22.232H177.266ZM183.572 31.144C182.75 31.144 182.004 30.9573 181.332 30.584C180.67 30.2107 180.148 29.6827 179.764 29C179.39 28.3067 179.204 27.5067 179.204 26.6C179.204 25.704 179.396 24.9147 179.78 24.232C180.174 23.5387 180.708 23.0107 181.38 22.648C182.052 22.2747 182.804 22.088 183.636 22.088C184.468 22.088 185.22 22.2747 185.892 22.648C186.564 23.0107 187.092 23.5333 187.476 24.216C187.87 24.8987 188.068 25.6933 188.068 26.6C188.068 27.5067 187.865 28.3067 187.46 29C187.065 29.6827 186.526 30.2107 185.844 30.584C185.161 30.9573 184.404 31.144 183.572 31.144ZM183.572 29.864C184.094 29.864 184.585 29.7413 185.044 29.496C185.502 29.2507 185.87 28.8827 186.148 28.392C186.436 27.9013 186.58 27.304 186.58 26.6C186.58 25.896 186.441 25.2987 186.164 24.808C185.886 24.3173 185.524 23.9547 185.076 23.72C184.628 23.4747 184.142 23.352 183.62 23.352C183.086 23.352 182.596 23.4747 182.148 23.72C181.71 23.9547 181.358 24.3173 181.092 24.808C180.825 25.2987 180.692 25.896 180.692 26.6C180.692 27.3147 180.82 27.9173 181.076 28.408C181.342 28.8987 181.694 29.2667 182.132 29.512C182.569 29.7467 183.049 29.864 183.572 29.864ZM194.254 22.072C195.321 22.072 196.185 22.3973 196.846 23.048C197.507 23.688 197.838 24.616 197.838 25.832V31H196.398V26.04C196.398 25.1653 196.179 24.4987 195.742 24.04C195.305 23.5707 194.707 23.336 193.95 23.336C193.182 23.336 192.569 23.576 192.11 24.056C191.662 24.536 191.438 25.2347 191.438 26.152V31H189.982V22.232H191.438V23.48C191.726 23.032 192.115 22.6853 192.606 22.44C193.107 22.1947 193.657 22.072 194.254 22.072Z" fill="#7AA0A7"/>
<path fill-rule="evenodd" clip-rule="evenodd" d="M31.319 27.4326C33.7628 24.2941 33.542 19.7535 30.6569 16.8683C27.5327 13.7441 22.4673 13.7441 19.3431 16.8683C16.219 19.9925 16.219 25.0578 19.3431 28.182C22.2283 31.0672 26.769 31.2879 29.9075 28.8442C29.921 28.8595 29.9351 28.8745 29.9497 28.8891L34.1924 33.1317C34.5829 33.5223 35.2161 33.5223 35.6066 33.1317C35.9971 32.7412 35.9971 32.1081 35.6066 31.7175L31.364 27.4749C31.3493 27.4603 31.3343 27.4462 31.319 27.4326ZM29.2426 18.2825C31.5858 20.6257 31.5858 24.4246 29.2426 26.7678C26.8995 29.1109 23.1005 29.1109 20.7574 26.7678C18.4142 24.4246 18.4142 20.6257 20.7574 18.2825C23.1005 15.9394 26.8995 15.9394 29.2426 18.2825Z" fill="#7AA0A7"/>
</svg>
