<svg width="30" height="30" viewBox="0 0 30 30" fill="none" xmlns="http://www.w3.org/2000/svg">
<path d="M23.4031 5.97855L24.2567 5.125H23.0496H19.6875C19.5714 5.125 19.4602 5.07891 19.3781 4.99686C19.2961 4.91481 19.25 4.80353 19.25 4.6875C19.25 4.57147 19.2961 4.46019 19.3781 4.37814C19.4602 4.29609 19.5714 4.25 19.6875 4.25H25.3125C25.4285 4.25 25.5398 4.29609 25.6218 4.37814C25.7039 4.46019 25.75 4.57147 25.75 4.6875V10.3125C25.75 10.4285 25.7039 10.5398 25.6218 10.6219C25.5398 10.7039 25.4285 10.75 25.3125 10.75C25.1964 10.75 25.0852 10.7039 25.0031 10.6219C24.9211 10.5398 24.875 10.4285 24.875 10.3125V6.95156V5.74466L24.0215 6.59797L19.0914 11.5269L18.7715 11.8467L19.0578 12.1969C20.4988 13.9598 21.2071 16.2091 21.0363 18.4796C20.8654 20.7501 19.8285 22.8681 18.1399 24.3955C16.4514 25.9229 14.2403 26.7429 11.9641 26.6859C9.68794 26.6289 7.52072 25.6993 5.91071 24.0893C4.3007 22.4793 3.37106 20.312 3.31406 18.0358C3.25707 15.7597 4.07708 13.5486 5.6045 11.8601C7.13193 10.1715 9.2499 9.13454 11.5204 8.96371C13.7909 8.79287 16.0402 9.5012 17.8031 10.9422L18.1532 11.2284L18.4731 10.9086L23.4031 5.97855ZM17.8425 23.4736L17.8431 23.473C19.3409 21.9711 20.1821 19.9366 20.1821 17.8154C20.1821 15.6943 19.3409 13.6597 17.8431 12.1579L17.8425 12.1573C16.7235 11.0388 15.2981 10.2773 13.7463 9.96888C12.1946 9.66049 10.5862 9.81913 9.12463 10.4247C7.66303 11.0303 6.41381 12.0557 5.53492 13.3712C4.65603 14.6868 4.18693 16.2333 4.18693 17.8154C4.18693 19.3975 4.65603 20.9441 5.53492 22.2596C6.41381 23.5751 7.66303 24.6005 9.12463 25.2061C10.5862 25.8117 12.1946 25.9704 13.7463 25.662C15.2981 25.3536 16.7235 24.592 17.8425 23.4736Z" fill="white" stroke="#4A6670"/>
</svg>
