<svg width="28" height="28" viewBox="0 0 28 28" fill="none" xmlns="http://www.w3.org/2000/svg">
<g id="24 / basic / more-vertical">
<path id="icon" fill-rule="evenodd" clip-rule="evenodd" d="M11.6665 5.83333C11.6665 7.122 12.7112 8.16667 13.9998 8.16667C15.2885 8.16667 16.3332 7.122 16.3332 5.83333C16.3332 4.54467 15.2885 3.5 13.9998 3.5C12.7112 3.5 11.6665 4.54467 11.6665 5.83333ZM13.9998 16.3333C12.7112 16.3333 11.6665 15.2887 11.6665 14C11.6665 12.7113 12.7112 11.6667 13.9998 11.6667C15.2885 11.6667 16.3332 12.7113 16.3332 14C16.3332 15.2887 15.2885 16.3333 13.9998 16.3333ZM13.9998 24.5C12.7112 24.5 11.6665 23.4553 11.6665 22.1667C11.6665 20.878 12.7112 19.8333 13.9998 19.8333C15.2885 19.8333 16.3332 20.878 16.3332 22.1667C16.3332 23.4553 15.2885 24.5 13.9998 24.5Z" fill="#4A6670"/>
</g>
</svg>
