<svg width="24" height="24" viewBox="0 0 24 24" fill="none" xmlns="http://www.w3.org/2000/svg">
<path d="M15.1278 19.68C14.0129 19.68 13.1871 19.4632 12.6503 19.0297C12.1136 18.5755 11.8452 17.9871 11.8452 17.2645C11.8452 15.3239 12.289 13.3523 13.1768 11.3497C14.0852 9.32646 15.1484 7.6542 16.3665 6.33291C17.5845 4.99098 18.6065 4.32001 19.4323 4.32001C20.031 4.32001 20.5884 4.42323 21.1045 4.62968C21.6413 4.81549 21.9097 5.11485 21.9097 5.52775C21.9097 5.92001 21.7961 6.39485 21.569 6.95227L21.2284 7.8813C20.7123 9.20259 20.289 10.5652 19.9587 11.969C19.6284 13.3729 19.4632 15.1381 19.4632 17.2645C19.4632 18.8748 18.369 19.68 16.1807 19.68H15.1278ZM5.37291 19.68C4.25807 19.68 3.43227 19.4632 2.89549 19.0297C2.35872 18.5755 2.09033 17.9871 2.09033 17.2645C2.09033 15.3239 2.5342 13.3523 3.42194 11.3497C4.33033 9.32646 5.39356 7.6542 6.61162 6.33291C7.82969 4.99098 8.85162 4.32001 9.67743 4.32001C10.2761 4.32001 10.8336 4.42323 11.3497 4.62968C11.8865 4.81549 12.1548 5.11485 12.1548 5.52775C12.1548 5.92001 12.0413 6.39485 11.8142 6.95227L11.4736 7.8813C10.9574 9.20259 10.5342 10.5652 10.2039 11.969C9.87356 13.3729 9.7084 15.1381 9.7084 17.2645C9.7084 18.8748 8.6142 19.68 6.42582 19.68H5.37291Z" fill="#4A6670"/>
</svg>
