<svg width="24" height="24" viewBox="0 0 24 24" fill="none" xmlns="http://www.w3.org/2000/svg">
<path d="M8.87225 4.31999C9.98709 4.31999 10.8129 4.53677 11.3497 4.97031C11.8864 5.42451 12.1548 6.01289 12.1548 6.73548C12.1548 8.67612 11.711 10.6477 10.8232 12.6503C9.91483 14.6735 8.8516 16.3458 7.63354 17.6671C6.41547 19.009 5.39354 19.68 4.56773 19.68C3.96902 19.68 3.4116 19.5768 2.89548 19.3703C2.3587 19.1845 2.09031 18.8852 2.09031 18.4723C2.09031 18.08 2.20386 17.6052 2.43096 17.0477L2.7716 16.1187C3.28773 14.7974 3.71096 13.4348 4.04128 12.031C4.3716 10.6271 4.53676 8.86193 4.53676 6.73548C4.53676 5.12515 5.63096 4.31999 7.81935 4.31999H8.87225ZM18.6271 4.31999C19.7419 4.31999 20.5677 4.53677 21.1045 4.97031C21.6413 5.42451 21.9097 6.01289 21.9097 6.73548C21.9097 8.67612 21.4658 10.6477 20.5781 12.6503C19.6697 14.6735 18.6064 16.3458 17.3884 17.6671C16.1703 19.009 15.1484 19.68 14.3226 19.68C13.7239 19.68 13.1664 19.5768 12.6503 19.3703C12.1135 19.1845 11.8452 18.8852 11.8452 18.4723C11.8452 18.08 11.9587 17.6052 12.1858 17.0477L12.5264 16.1187C13.0426 14.7974 13.4658 13.4348 13.7961 12.031C14.1264 10.6271 14.2916 8.86193 14.2916 6.73548C14.2916 5.12515 15.3858 4.31999 17.5742 4.31999H18.6271Z" fill="#4A6670"/>
</svg>
