<svg width="83" height="15" viewBox="0 0 83 15" fill="none" xmlns="http://www.w3.org/2000/svg">
<path d="M7.5 0L9.18386 5.18237H14.6329L10.2245 8.38525L11.9084 13.5676L7.5 10.3647L3.09161 13.5676L4.77547 8.38525L0.367076 5.18237H5.81614L7.5 0Z" fill="#F38536"/>
<path d="M41.5 0L43.1839 5.18237H48.6329L44.2245 8.38525L45.9084 13.5676L41.5 10.3647L37.0916 13.5676L38.7755 8.38525L34.3671 5.18237H39.8161L41.5 0Z" fill="#F38536"/>
<path d="M58.5 0.809018L59.9461 5.25963L60.0022 5.43237H60.1839H64.8635L61.0776 8.183L60.9306 8.28976L60.9868 8.46251L62.4329 12.9131L58.6469 10.1625L58.5 10.0557L58.3531 10.1625L54.5671 12.9131L56.0132 8.46251L56.0694 8.28976L55.9224 8.183L52.1365 5.43237H56.8161H56.9978L57.0539 5.25963L58.5 0.809018Z" fill="#DFEAF1" stroke="#F38536" stroke-width="0.5"/>
<path d="M75.5 0.809018L76.9461 5.25963L77.0022 5.43237H77.1839H81.8635L78.0776 8.183L77.9306 8.28976L77.9868 8.46251L79.4329 12.9131L75.6469 10.1625L75.5 10.0557L75.3531 10.1625L71.5671 12.9131L73.0132 8.46251L73.0694 8.28976L72.9224 8.183L69.1365 5.43237H73.8161H73.9978L74.0539 5.25963L75.5 0.809018Z" fill="#DFEAF1" stroke="#F38536" stroke-width="0.5"/>
<path d="M24.5 0L26.1839 5.18237H31.6329L27.2245 8.38525L28.9084 13.5676L24.5 10.3647L20.0916 13.5676L21.7755 8.38525L17.3671 5.18237H22.8161L24.5 0Z" fill="#F38536"/>
</svg>
