<svg width="166" height="30" viewBox="0 0 166 30" fill="none" xmlns="http://www.w3.org/2000/svg">
<path d="M151 1.61804L153.892 10.5193L154.004 10.8647H154.368H163.727L156.155 16.366L155.861 16.5795L155.974 16.925L158.866 25.8262L151.294 20.325L151 20.1115L150.706 20.325L143.134 25.8262L146.026 16.925L146.139 16.5795L145.845 16.366L138.273 10.8647H147.632H147.996L148.108 10.5193L151 1.61804Z" fill="white" stroke="#F38536"/>
<path d="M117 1.61804L119.892 10.5193L120.004 10.8647H120.368H129.727L122.155 16.366L121.861 16.5795L121.974 16.925L124.866 25.8262L117.294 20.325L117 20.1115L116.706 20.325L109.134 25.8262L112.026 16.925L112.139 16.5795L111.845 16.366L104.273 10.8647H113.632H113.996L114.108 10.5193L117 1.61804Z" fill="white" stroke="#F38536"/>
<path d="M83 0L86.3677 10.3647H97.2658L88.4491 16.7705L91.8168 27.1353L83 20.7295L74.1832 27.1353L77.5509 16.7705L68.7342 10.3647H79.6323L83 0Z" fill="#F38536"/>
<path d="M49 0L52.3677 10.3647H63.2658L54.4491 16.7705L57.8168 27.1353L49 20.7295L40.1832 27.1353L43.5509 16.7705L34.7342 10.3647H45.6323L49 0Z" fill="#F38536"/>
<path d="M15 0L18.3677 10.3647H29.2658L20.4491 16.7705L23.8168 27.1353L15 20.7295L6.18322 27.1353L9.55093 16.7705L0.734152 10.3647H11.6323L15 0Z" fill="#F38536"/>
</svg>
