<svg width="24" height="24" viewBox="0 0 24 24" fill="none" xmlns="http://www.w3.org/2000/svg">
<path d="M14.5153 7.76998L17.723 4.56223C18.4726 3.81259 19.6881 3.81259 20.4378 4.56223C21.1874 5.31186 21.1874 6.52736 20.4378 7.277L17.23 10.4847L18.9656 19.1211C19.0295 19.4387 18.9298 19.7671 18.7012 19.9966L18.062 20.6358C17.568 21.1298 16.7283 20.9535 16.4746 20.3027L13.9332 13.7816L10.6344 17.0804L10.8107 19.1821C10.8349 19.4659 10.7322 19.7467 10.5308 19.9482L9.47893 21L7.4247 17.5753L4 15.5211L5.05182 14.4692C5.25327 14.2678 5.53317 14.1651 5.81792 14.1893L7.91961 14.3656L11.2184 11.0668L4.69831 8.52542C4.04649 8.27167 3.87022 7.43293 4.36416 6.93801L5.00339 6.29879C5.23293 6.06925 5.56126 5.97046 5.87893 6.03438L14.5153 7.76998Z" stroke="#1C82AA" stroke-opacity="0.5" stroke-width="1.5" stroke-linecap="round" stroke-linejoin="round"/>
</svg>
